{"title":"BBC Proms 2016, Prom 36 - Jamie Cullum Prom","uid":15690025,"size":1698005212,"categoryP":"video","categoryS":"3d","magnet":"?xt=urn:btih:5692e7653e62fa87b2c7aabd9d9365bdecd28ff4&amp;dn=BBC+Proms+2016%2C+Prom+36+-+Jamie+Cullum+Prom&amp;tr=udp%3A%2F%2Ftracker.leechers-paradise.org%3A6969&amp;tr=udp%3A%2F%2Fzer0day.ch%3A1337&amp;tr=udp%3A%2F%2Fopen.demonii.com%3A1337&amp;tr=udp%3A%2F%2Ftracker.coppersurfer.tk%3A6969&amp;tr=udp%3A%2F%2Fexodus.desync.com%3A6969","seeders":1,"leechers":5,"uploader":"RoaElson","files":5,"time":1472393313,"description":"BBC Proms 2016, Prom 36 - Jamie Cullum Prom\r\n\r\nLive at the BBC Proms: Jamie Cullum presents an evening of late-night jazz, with performances from BBC Introducing artists, the Heritage Orchestra and conductor Jules Buckley.\r\n\r\nLive from the Royal Albert Hall\r\nPresented by Clemency Burton-Hill\r\nJamie Cullum, piano/vocals\r\nThe Roundhouse Choir \r\nThe Heritage Orchestra \r\nJules Buckley, conductor\r\n\r\nStraddling the boundaries of jazz, pop and rock, Jamie Cullum returns for another Late Night Prom after his sell-out appearance in 2010. This time, backed by the Roundhouse Choir and Heritage Orchestra, he offers his own take on a collection of pop songs, in the spirit of The Song Society - Cullum's project to create fast and loose covers of favourite tracks. He brings the same approach of new discovery both to his use of the wide array of instruments available and to exploring the distinctive space of the Royal Albert Hall.\r\n\r\n[url=http://extraimago.com/image/wO6v][img]http://extraimago.com/images/2016/08/27/wO6v.md.jpg[/img][/url]\r\n\r\n*****Note***** This torrent contains both audio and video files of the performance\r\n\r\nMedia info: \r\n\r\n(Video file)\r\n\r\nGeneral\r\nFormat : MPEG-4\r\nFormat profile : Base Media\r\nCodec ID : isom (isom/iso2/avc1/mp41)\r\nFile size : 1.40 GiB\r\nDuration : 1h 23mn\r\nOverall bit rate mode : Variable\r\nOverall bit rate : 2 390 Kbps\r\n\r\nVideo\r\nID : 1\r\nFormat : AVC\r\nFormat/Info : Advanced Video Codec\r\nFormat profile :   \r\nFormat settings, CABAC : Yes\r\nFormat settings, ReFrames : 2 frames\r\nCodec ID : avc1\r\nCodec ID/Info : Advanced Video Coding\r\nDuration : 1h 23mn\r\nBit rate mode : Variable\r\nBit rate : 2 291 Kbps\r\nMaximum bit rate : 3 500 Kbps\r\nWidth : 1 280 pixels\r\nHeight : 720 pixels\r\nDisplay aspect ratio : 16:9\r\nFrame rate mode : Constant\r\nFrame rate : 25.000 fps\r\nColor space : YUV\r\nChroma subsampling : 4:2:0\r\nBit depth : 8 bits\r\nScan type : Progressive\r\nBits/(Pixel*Frame) : 0.099\r\nStream size : 1.34 GiB (96%)\r\n\r\nAudio\r\nID : 2\r\nFormat : AAC\r\nFormat/Info : Advanced Audio Codec\r\nFormat profile : LC\r\nCodec ID : 40\r\nDuration : 1h 23mn\r\nBit rate mode : Constant\r\nBit rate : 93.5 Kbps\r\nChannel(s) : 2 channels\r\nChannel positions : Front: L R\r\nSampling rate : 48.0 KHz\r\nFrame rate : 46.875 fps (1024 spf)\r\nCompression mode : Lossy\r\nStream size : 56.0 MiB (4%)\r\n\r\n\r\n(audio file)\r\n\r\nGeneral\r\nFormat : MPEG Audio\r\nFile size : 187 MiB\r\nDuration : 1h 21mn\r\nOverall bit rate mode : Constant\r\nOverall bit rate : 320 Kbps\r\nAlbum : BBC Proms: 2016\r\nTrack name : Prom 36: Jamie Cullum Prom\r\nTrack name/Position : 0\r\nGenre : Music\r\nWriting library : LAME3.98r\r\n\r\nAudio\r\nFormat : MPEG Audio\r\nFormat version : Version 1\r\nFormat profile : Layer 3\r\nMode : Joint stereo\r\nDuration : 1h 21mn\r\nBit rate mode : Constant\r\nBit rate : 320 Kbps\r\nChannel(s) : 2 channels\r\nSampling rate : 48.0 KHz\r\nCompression mode : Lossy\r\nStream size : 187 MiB (100%)\r\nWriting library : LAME3.98r\r\nEncoding settings : -m j -V 4 -q 3 -lowpass 20.5","torrent":{"xt":"urn:btih:5692e7653e62fa87b2c7aabd9d9365bdecd28ff4","amp;dn":"BBC+Proms+2016%2C+Prom+36+-+Jamie+Cullum+Prom","amp;tr":["udp%3A%2F%2Ftracker.leechers-paradise.org%3A6969","udp%3A%2F%2Fzer0day.ch%3A1337","udp%3A%2F%2Fopen.demonii.com%3A1337","udp%3A%2F%2Ftracker.coppersurfer.tk%3A6969","udp%3A%2F%2Fexodus.desync.com%3A6969"],"infoHash":"5692e7653e62fa87b2c7aabd9d9365bdecd28ff4","infoHashBuffer":{"type":"Buffer","data":[86,146,231,101,62,98,250,135,178,199,170,189,157,147,101,189,236,210,143,244]},"announce":[],"urlList":[]}}